<svg xmlns="http://www.w3.org/2000/svg" xmlns:xlink="http://www.w3.org/1999/xlink" width="375.001" height="812" viewBox="0 0 375.001 812">
  <defs>
    <linearGradient id="linear-gradient" x1="0.5" y1="1" x2="0.5" gradientUnits="objectBoundingBox">
      <stop offset="0" stop-color="#b1dcff"/>
      <stop offset="1" stop-color="#fafdff"/>
    </linearGradient>
    <linearGradient id="linear-gradient-2" y1="1" x2="0.315" y2="0.322" gradientUnits="objectBoundingBox">
      <stop offset="0" stop-color="#0073d0"/>
      <stop offset="1" stop-color="#5ab6ff" stop-opacity="0.224"/>
    </linearGradient>
    <linearGradient id="linear-gradient-3" x1="1" x2="0.685" y2="0.678" gradientUnits="objectBoundingBox">
      <stop offset="0" stop-color="#57b4ff"/>
      <stop offset="1" stop-color="#57b4ff" stop-opacity="0"/>
    </linearGradient>
  </defs>
  <g id="BG" transform="translate(0.001)">
    <rect id="Rectangle_145636" data-name="Rectangle 145636" width="375" height="812" fill="url(#linear-gradient)"/>
    <path id="Pattern" d="M347.635,167v10.385a.67.67,0,0,0-.306.174l-4.343-2.507-4.649-2.684V161.629Zm-9.641,5.566V183.3l-9.3-5.368V167.194ZM376.557,183.5l-9.3,5.368V178.127l9.3-5.369Zm-19.282,0-9.3,5.368V178.677a.658.658,0,0,0,.475-.823l8.823-5.093Zm-14.29-8.052,4.174,2.409a.657.657,0,0,0-.026.175.671.671,0,0,0,.5.648v10.187l-4.649-2.684-4.649-2.684V172.76Zm-23.931,17.307v-8.861l9.3,5.368v3.493h.343V189.26l9.3-5.368v8.861h.343v-8.861l4.649,2.684,4.649,2.684v3.492h.343V189.26l9.3-5.368v8.861h.343v-8.861l9.3,5.368v3.492h.343v-3.295l5.706,3.295h.686l-6.221-3.591,4.224-2.439,5.074-2.93,8.994,5.193a.6.6,0,0,0,0,.351l-5.917,3.416h.685l5.4-3.118a.672.672,0,1,0,0-.947L376.9,183.5v-11.33L367,177.88l-.086.049v10.935l-9.3-5.368v-11.33l-9.334,5.39a.667.667,0,0,0-.306-.175V166.8l-9.983-5.764v11.132l-9.641-5.566v11.528l9.469,5.467-9.3,5.367-9.813-5.665v9.455Zm-.343-20.39-9.3,5.368V167.542a.658.658,0,0,0,.475-.823l8.823-5.094Zm-18.939,20.39v-9.059l9.3-5.369v10.736l-6.394,3.691h.686l5.708-3.295v3.295h.343V178.126l9.555-5.517.086-.049V161.031l-9.335,5.39a.672.672,0,1,0-.649,1.121v10.386l-9.555,5.517-.086.049v9.257Zm-48.546-36.34V166.8l-.171.1h0l-9.127,5.269V161.43l8.992-5.191a.67.67,0,0,0,.306.174M289.619,166.9l-9.127,5.269-.171.1-.171-.1-9.126-5.269,9.3-5.368Zm-19.281,0-9.3,5.368-9.3-5.368,9.3-5.368Zm29.094,5.467-8.992,5.191a.672.672,0,0,0-.306-.174V167l9.3-5.368Zm-9.641,5.017a.67.67,0,0,0-.306.175l-8.82-5.093,9.127-5.27Zm-28.922-4.819V183.3l-9.3-5.368V167.193Zm-9.641,5.368-9.3,5.368V172.561l9.3-5.368Zm38.088-.076a.658.658,0,0,0-.026.175.671.671,0,0,0,.5.648v10.188l-9.3-5.368V172.759ZM280.15,183.5l-9.3,5.368V178.127l9.3-5.369Zm-47.876,9.257v-3.072a.671.671,0,0,0,.5-.648c0-.022,0-.041-.006-.063l8.8-5.082v8.865h.358v-9.059l9.3-5.368V189.06l-6.395,3.692h.685l5.881-3.395,5.881,3.395h.686l-6.395-3.692V178.325l9.3,5.368v9.059h.343v-8.861h0v-11.33l9.47-5.467,9.3,5.368-9.384,5.418-.086.049v11.132l-.171.1.171.1v3.493h.343v-3.295l5.707,3.295h.686l-6.221-3.592,4.224-2.439,5.074-2.93,9.3,5.368L285.4,191.6l-2,1.153h.685l5.707-3.295v3.295h.343v-3.295l5.707,3.295h.686l-6.393-3.691V178.676a.661.661,0,0,0,.476-.823l9.079-5.242.086-.049V161.034l-9.812,5.665-9.641-5.566-9.64,5.566-9.641-5.566-9.47,5.467V156.413a.679.679,0,1,0-.818-.473l-9.08,5.242-.086.049v22.252l-8.938,5.16a.671.671,0,1,0-.717,1.038v3.072ZM212.665,89.072V99.808l-9.3-5.368V83.7Zm0,22.264v10.385a.671.671,0,0,0-.306.174l-8.992-5.192V105.968Zm19.281,10.934-9.3,5.368V116.9l9.3-5.368Zm-9.64-5.368v10.736l-4.649-2.684-4.174-2.409a.654.654,0,0,0,.026-.175.671.671,0,0,0-.5-.648V111.534Zm9.64,16.5-9.3,5.368V128.034l9.3-5.368Zm-14.29-8.052,4.649,2.684v10.736l-4.649-2.684-4.649-2.684V123.017a.667.667,0,0,0,.306-.175Zm0,11.131,4.649,2.684V149.9l-9.3-5.369V133.8Zm23.455,2.411a.683.683,0,0,0-.026.175.671.671,0,0,0,.5.648V149.9l-9.3-5.368V133.8Zm10.116,5.642-9.3,5.368V139.714a.659.659,0,0,0,.476-.822l8.822-5.094Zm-19.282,11.328v10.386a.672.672,0,0,0-.3.173l-8.993-5.191V150.494ZM212.672,166.8l-9.3,5.368V161.978a.671.671,0,0,0,.5-.648.66.66,0,0,0-.026-.175l8.823-5.093Zm19.274.747v10.385l-9.3,5.368V172.561l8.992-5.191a.673.673,0,0,0,.306.174m-19.274,10.385-9.3,5.368V172.561l9.3-5.368Zm-9.3,14.823v-9.059l9.3-5.368V189.06l-6.394,3.692h.685l5.881-3.395,5.881,3.395h.686l-6.395-3.692V178.325l9.291,5.363v.2l.007,0v8.866h.343v-9.064l9.548-5.512.085-.049V167.544a.669.669,0,0,0,0-1.3V155.664l-9.64-5.566V139.165l9.3-5.368v10.936l9.641,5.566v.2l.172-.1.171.1v-.2l9.555-5.517.086-.049V133.2l-9.334,5.389a.672.672,0,0,0-.956,0l-8.991-5.191V110.94l-9.812,5.665-9.47-5.467-9.469-5.467,9.3-5.368.171.1v-.2l.171-.1-.171-.1V88.874l-9.64-5.566V72.923a.672.672,0,1,0-.844-.648.659.659,0,0,0,.026.176l-6.538,3.775v.4l6.707-3.873a.667.667,0,0,0,.306.174V83.308l-7.013,4.049v.4l7.013-4.049V94.44l-7.013,4.049v.4l7.184-4.148,9.3,5.368-9.126,5.27-.172.1-.171-.1-7.013-4.049v.4l6.842,3.95-6.842,3.95v.4l7.013-4.049V116.7l-7.013,4.049v.4l2.11-1.218L203.2,117l8.995,5.193a.594.594,0,0,0,0,.351l-8.994,5.193-7.185-4.148v.4l7.013,4.049v10.737l-7.013-4.049v.4l6.838,3.948-6.838,3.948v.4l7.005-4.045V150.1l-7.005,4.045v.4l7.262-4.193.086-.049V139.36l.008,0v-11.33l8.992-5.191a.671.671,0,0,0,.306.174V144.73l9.641,5.566v11.132l9.166,5.292a.655.655,0,0,0-.027.177.676.676,0,0,0,.026.176l-9.079,5.242-.086.049v10.93l-9.291-5.364V155.468l-9.334,5.39a.672.672,0,1,0-.649,1.121v21.5l-7.021,4.054v.4l7.005-4.045v8.865Z" transform="translate(-196.012 619.012)" fill="url(#linear-gradient-2)"/>
    <path id="Pattern-2" data-name="Pattern" d="M267.169,118.109V99.358a1.21,1.21,0,0,0,.553-.315l7.842,4.527,8.395,4.846V127.8Zm17.409-10.051V88.673l16.79,9.693v19.386ZM214.943,88.317l16.79-9.694V98.01l-16.79,9.694Zm34.817,0,16.79-9.692V97.018a1.189,1.189,0,0,0-.858,1.486l-15.932,9.2Zm25.8,14.539-7.537-4.35a1.186,1.186,0,0,0,.048-.316,1.211,1.211,0,0,0-.905-1.17V78.623l8.395,4.847,8.395,4.846V107.7ZM318.776,71.6v16l-16.79-9.694V71.6h-.619v6.306L284.578,87.6v-16h-.619v16l-8.395-4.847-8.395-4.846V71.6h-.619v6.306L249.761,87.6v-16h-.619v16l-16.79-9.694V71.6h-.619v5.949l-10.3-5.949h-1.238l11.233,6.485-7.627,4.4-9.162,5.29L198.393,78.4a1.09,1.09,0,0,0,0-.634L209.077,71.6H207.84l-9.752,5.63a1.214,1.214,0,1,0,0,1.71l16.237,9.374v20.459L232.2,98.456l.155-.088V78.623l16.79,9.693v20.458L266,99.042a1.2,1.2,0,0,0,.553.316v19.109l18.027,10.408v-20.1l17.409,10.051V98.009l-17.1-9.872,16.788-9.692,17.719,10.23V71.6Zm.619,36.819,16.79-9.694v18.4a1.187,1.187,0,0,0-.858,1.487l-15.932,9.2Zm34.2-36.819V87.96L336.8,97.654V78.268L348.348,71.6H347.11L336.8,77.552V71.6h-.619V98.013l-17.254,9.962-.155.089v20.817l16.856-9.733a1.213,1.213,0,1,0,1.171-2.024V98.369l17.253-9.963.155-.088V71.6Zm87.661,65.619V118.469l.309-.178h0l16.481-9.514v19.385l-16.237,9.374a1.211,1.211,0,0,0-.553-.314m-69.325-18.93,16.48-9.515.309-.179.309.179,16.48,9.515-16.789,9.694Zm34.816,0,16.79-9.694,16.79,9.694-16.79,9.694Zm-52.535-9.872,16.238-9.374a1.212,1.212,0,0,0,.553.315v18.752l-16.79,9.693Zm17.409-9.059a1.21,1.21,0,0,0,.553-.316l15.927,9.2-16.48,9.515Zm52.226,8.7V88.676l16.79,9.693v19.387Zm17.408-9.693,16.79-9.693v19.386l-16.79,9.693Zm-68.776.137a1.188,1.188,0,0,0,.047-.316,1.212,1.212,0,0,0-.905-1.17v-18.4l16.79,9.694V107.7Zm16.55-10.189,16.79-9.694V98.01l-16.79,9.695ZM475.48,71.6v5.546a1.211,1.211,0,0,0-.9,1.17c0,.039.008.075.012.113l-15.9,9.178V71.6h-.646V87.961l-16.79,9.693V78.269L452.8,71.6h-1.237l-10.619,6.13L430.327,71.6h-1.238l11.547,6.667V97.654l-16.79-9.694V71.6h-.619v16h0v20.459l-17.1,9.872-16.79-9.694,16.945-9.784.155-.088v-20.1l.309-.179-.309-.178V71.6h-.619v5.95L395.513,71.6h-1.238l11.234,6.486-7.627,4.4-9.162,5.29L371.93,78.088l7.626-4.4,3.607-2.082h-1.237l-10.306,5.95V71.6H371v5.95L360.7,71.6h-1.239L371,78.267V97.02a1.193,1.193,0,0,0-.859,1.487l-16.4,9.466-.155.089v20.815l17.717-10.229L388.72,128.7l17.408-10.051L423.536,128.7l17.1-9.872v18.394a1.227,1.227,0,1,0,1.477.853l16.4-9.466.155-.088V88.34l16.14-9.318a1.212,1.212,0,1,0,1.3-1.874V71.6ZM510.889,258.82V239.433l16.789,9.694v19.387Zm0-40.2V199.864a1.211,1.211,0,0,0,.552-.315l16.237,9.375V228.31Zm-34.817-19.743,16.789-9.693v19.387l-16.789,9.693Zm17.408,9.693V189.181l8.4,4.847,7.537,4.35a1.18,1.18,0,0,0-.048.316,1.212,1.212,0,0,0,.906,1.169v18.4Zm-17.408-29.793,16.789-9.693v19.385l-16.789,9.694Zm25.8,14.539-8.4-4.846V169.081l8.4,4.846,8.395,4.847v18.751a1.2,1.2,0,0,0-.553.316Zm0-20.1-8.4-4.846V148.98l16.79,9.694v19.385Zm-42.353-4.354a1.234,1.234,0,0,0,.046-.316,1.211,1.211,0,0,0-.905-1.169v-18.4l16.79,9.694v19.385ZM441.255,158.67l16.79-9.694v18.4a1.19,1.19,0,0,0-.859,1.485l-15.931,9.2Zm34.817-20.455V119.46a1.213,1.213,0,0,0,.551-.312l16.239,9.374v19.385Zm34.8-19.746,16.789-9.693v18.395a1.211,1.211,0,0,0-.905,1.169,1.19,1.19,0,0,0,.048.317l-15.932,9.2Zm-34.8-1.349V98.369l16.789-9.693v19.386l-16.237,9.374a1.216,1.216,0,0,0-.553-.315m34.8-18.752,16.789-9.693v19.386l-16.789,9.693ZM527.664,71.6V87.961l-16.789,9.693V78.269L522.422,71.6h-1.237l-10.619,6.13L499.947,71.6h-1.238l11.547,6.667V97.654L493.48,87.969V87.6l-.013.008V71.6h-.619V87.969l-17.241,9.953-.154.088v19.11a1.208,1.208,0,0,0,0,2.339v19.113l17.408,10.051v19.743l-16.789,9.693V158.313l-17.409-10.05V147.9l-.31.179-.309-.178v.356l-17.254,9.962-.155.089v20.816l16.855-9.731a1.213,1.213,0,0,0,1.726,0l16.236,9.373v40.561L493.17,209.1l17.1,9.872,17.1,9.872-16.79,9.694-.309-.179v.358l-.309.179.309.179v20.1l17.408,10.051v18.753a1.213,1.213,0,1,0,1.525,1.17,1.19,1.19,0,0,0-.048-.317l11.806-6.816V281.3L528.849,288.3a1.2,1.2,0,0,0-.552-.315V269.228l12.664-7.312V261.2L528.3,268.514V249.127l12.664-7.311V241.1l-12.973,7.49L511.2,238.9l16.48-9.515.31-.178.309.178,12.664,7.311v-.714l-12.354-7.133,12.354-7.133V221L528.3,228.31V208.924l12.664-7.312V200.9l-3.811,2.2-9.162,5.29-16.242-9.377a1.073,1.073,0,0,0,0-.633L527.987,189l12.974,7.49v-.715L528.3,188.464V169.077l12.664,7.312v-.715l-12.347-7.128,12.347-7.129V160.7l-12.65,7.3V148.62l12.65-7.3V140.6l-13.114,7.571-.155.088v19.751l-.014-.007v20.459l-16.237,9.374a1.211,1.211,0,0,0-.553-.315V158.316L493.48,148.266v-20.1l-16.551-9.555a1.183,1.183,0,0,0,.048-.319,1.22,1.22,0,0,0-.047-.317l16.4-9.465.155-.088V88.683l16.777,9.686v40.558l16.855-9.732a1.213,1.213,0,1,0,1.171-2.024V88.34l12.678-7.32v-.715l-12.65,7.3V71.6Z" transform="translate(-165.961 -71.602)" fill="url(#linear-gradient-3)"/>
  </g>
</svg>
